<svg id="Layer_2" xmlns="http://www.w3.org/2000/svg" viewBox="0 0 456.96 522.3" width="32" height="32">
  <defs>
    <style>
      .cls-1 {
        fill: #75b6c6;
      }

      .cls-2 {
        fill: #bdf1ff;
      }

      .cls-3 {
        fill: #202020;
      }

      .cls-4 {
        fill: #50deff;
      }
    </style>
  </defs>
  <g id="Layer_2-2" data-name="Layer_2">
    <g>
      <path class="cls-3" d="M228.82,522.3c-2.76,0-5.52-.71-8-2.14L8,397.29C3.04,394.42-.02,389.12,0,383.38l.7-244.56c.02-5.68,3.05-10.93,7.96-13.79L220.1,2.17c2.48-1.44,5.26-2.17,8.04-2.17s5.52.71,8,2.14l212.82,122.87c4.96,2.87,8.02,8.17,8,13.9l-.26,91.43c-.02,5.7-3.06,10.96-8,13.81l-43.22,24.95v80.94c0,5.72-3.05,11-8,13.86l-72,41.56v53.96c0,5.7-3.03,10.97-7.96,13.83l-80.66,46.87c-2.49,1.44-5.26,2.17-8.04,2.17Z"/>
      <g>
        <g>
          <polygon class="cls-4" points="314.48 218.16 435.94 147.57 435.71 227.41 314.48 297.39 314.48 218.16"/>
          <path class="cls-3" d="M430.91,156.28l-.19,68.24-111.24,64.21v-67.7l111.43-64.76M440.96,138.87l-131.48,76.41v90.77l131.22-75.75.26-91.43h0Z"/>
        </g>
        <g>
          <polygon class="cls-4" points="234.25 355.25 304.48 314.71 304.48 456.55 233.85 497.6 234.25 355.25"/>
          <path class="cls-3" d="M299.48,323.37v130.31l-60.61,35.22.37-130.75,60.24-34.77M309.48,306.05l-80.22,46.31h0s-.44,153.94-.44,153.94l80.66-46.87v-153.38h0Z"/>
        </g>
        <g>
          <polygon class="cls-2" points="26.68 138.86 228.15 21.78 430.99 138.88 229.51 255.97 26.68 138.86"/>
          <path class="cls-3" d="M228.16,27.56l192.85,111.34-116.55,67.74-74.95,43.56L36.65,138.84,228.16,27.56M228.14,16L16.7,138.87l212.82,122.88,79.96-46.47,131.48-76.41L228.14,16h0Z"/>
        </g>
        <g>
          <polygon class="cls-1" points="21.01 380.55 21.68 147.52 224.51 264.63 223.84 497.65 21.01 380.55"/>
          <path class="cls-3" d="M26.65,156.16l192.85,111.35-.24,84.83-.39,136.67L26.02,377.67l.63-221.5M16.7,138.87l-.7,244.56,212.82,122.87.44-153.93h0s.26-90.62.26-90.62L16.7,138.87h0Z"/>
        </g>
        <g>
          <polygon class="cls-4" points="234.51 264.63 304.48 223.97 304.48 303.16 234.29 343.69 234.51 264.63"/>
          <path class="cls-3" d="M299.48,232.66v67.62l-60.17,34.74.19-67.5,59.98-34.86M309.48,215.28l-79.96,46.47-.26,90.61,80.22-46.31v-90.77h0Z"/>
        </g>
        <g>
          <polygon class="cls-4" points="314.51 308.63 384.48 267.97 384.48 347.16 314.29 387.69 314.51 308.63"/>
          <path class="cls-3" d="M379.48,276.66v67.62l-60.17,34.74.19-67.5,59.98-34.86M389.48,259.28l-79.96,46.47-.26,90.61,80.22-46.31v-90.77h0Z"/>
        </g>
      </g>
    </g>
  </g>
</svg>