<svg width="100" height="100" viewBox="0 0 100 100" fill="none" xmlns="http://www.w3.org/2000/svg">
<g id="mongoose">
<g id="mongoose_2">
<path id="Vector" d="M97.7327 46.548C97.6992 46.0459 97.5821 45.5688 97.3812 45.1169C97.1971 44.665 96.9377 44.2801 96.6029 43.962C96.2849 43.6273 95.8999 43.3679 95.448 43.1837C95.0129 42.9829 94.5275 42.8825 93.9919 42.8825C93.4395 42.8825 92.9374 42.9829 92.4855 43.1837C92.0503 43.3679 91.6737 43.6273 91.3557 43.962C91.0377 44.2968 90.7866 44.6901 90.6025 45.142C90.4184 45.5772 90.3096 46.0459 90.2762 46.548H97.7327ZM99.7914 50.1633C99.5069 51.6194 98.8792 52.7157 97.9084 53.4522C96.9377 54.1886 95.7158 54.5568 94.2429 54.5568C93.2052 54.5568 92.3014 54.3895 91.5315 54.0547C90.7783 53.72 90.1423 53.2513 89.6234 52.6488C89.1045 52.0462 88.7112 51.3265 88.4434 50.4896C88.1923 49.6528 88.0501 48.7406 88.0166 47.7531C88.0166 46.7656 88.1672 45.8617 88.4685 45.0416C88.7698 44.2215 89.1882 43.5101 89.7238 42.9076C90.2762 42.305 90.9206 41.8364 91.657 41.5016C92.4102 41.1669 93.2303 40.9995 94.1174 40.9995C95.2723 40.9995 96.2263 41.2422 96.9795 41.7276C97.7494 42.1962 98.3603 42.7988 98.8123 43.5352C99.2809 44.2717 99.5989 45.0751 99.7663 45.9454C99.9504 46.8158 100.026 47.6443 99.9922 48.4309H90.2762C90.2594 49 90.3264 49.544 90.477 50.0628C90.6276 50.565 90.8703 51.0169 91.2051 51.4186C91.5398 51.8035 91.9666 52.1132 92.4855 52.3475C93.0044 52.5818 93.6153 52.699 94.3183 52.699C95.2221 52.699 95.9585 52.4898 96.5276 52.0713C97.1134 51.6529 97.4984 51.0169 97.6825 50.1633H99.7914Z" fill="#880000"/>
<path id="Vector_2" d="M79.8796 50.1884C79.8964 50.657 80.0052 51.0587 80.206 51.3935C80.4069 51.7115 80.6663 51.9709 80.9843 52.1718C81.3191 52.3559 81.6873 52.4898 82.089 52.5735C82.5074 52.6571 82.9342 52.699 83.3694 52.699C83.7041 52.699 84.0556 52.6739 84.4238 52.6237C84.7921 52.5735 85.1268 52.4814 85.4281 52.3475C85.7461 52.2136 86.0055 52.0211 86.2064 51.7701C86.4072 51.5023 86.5077 51.1675 86.5077 50.7658C86.5077 50.2135 86.2984 49.795 85.88 49.5105C85.4616 49.226 84.9343 49 84.2983 48.8326C83.679 48.6485 83.0012 48.4895 82.2647 48.3556C81.5283 48.205 80.842 48.0041 80.206 47.7531C79.5867 47.4853 79.0679 47.117 78.6494 46.6484C78.231 46.1797 78.0218 45.527 78.0218 44.6901C78.0218 44.0374 78.164 43.4767 78.4486 43.008C78.7498 42.5394 79.1264 42.1628 79.5784 41.8782C80.047 41.577 80.5659 41.3594 81.1349 41.2255C81.7207 41.0748 82.2982 40.9995 82.8673 40.9995C83.6037 40.9995 84.2816 41.0665 84.9009 41.2004C85.5201 41.3175 86.0641 41.5351 86.5328 41.8531C87.0181 42.1544 87.4031 42.5728 87.6876 43.1084C87.9722 43.6273 88.1396 44.2801 88.1898 45.0667H86.0557C86.0223 44.6483 85.9135 44.3052 85.7294 44.0374C85.5452 43.7528 85.3109 43.5269 85.0264 43.3595C84.7419 43.1921 84.4238 43.075 84.0724 43.008C83.7376 42.9243 83.3945 42.8825 83.043 42.8825C82.725 42.8825 82.3986 42.9076 82.0639 42.9578C81.7459 43.008 81.4529 43.1001 81.1851 43.234C80.9173 43.3511 80.6998 43.5185 80.5324 43.7361C80.365 43.9369 80.2813 44.2047 80.2813 44.5395C80.2813 44.9077 80.4069 45.2173 80.6579 45.4684C80.9257 45.7027 81.2605 45.9036 81.6622 46.071C82.0639 46.2216 82.5158 46.3555 83.0179 46.4727C83.52 46.5731 84.0221 46.6819 84.5243 46.799C85.0599 46.9162 85.5787 47.0585 86.0808 47.2258C86.5997 47.3932 87.0516 47.6192 87.4366 47.9037C87.8383 48.1715 88.1563 48.5146 88.3906 48.9331C88.6417 49.3515 88.7672 49.8704 88.7672 50.4896C88.7672 51.2763 88.5998 51.9291 88.2651 52.4479C87.9471 52.9668 87.5203 53.3852 86.9847 53.7032C86.4658 54.0212 85.8716 54.2388 85.2021 54.356C84.5494 54.4899 83.8966 54.5568 83.2439 54.5568C82.5241 54.5568 81.8379 54.4815 81.1851 54.3309C80.5324 54.1802 79.9549 53.9376 79.4528 53.6028C78.9507 53.2513 78.549 52.7994 78.2477 52.2471C77.9465 51.678 77.7791 50.9918 77.7456 50.1884H79.8796Z" fill="#880000"/>
<path id="Vector_3" d="M68.1219 47.8033C68.1219 48.5899 68.2223 49.2929 68.4231 49.9122C68.6407 50.5147 68.9336 51.0252 69.3018 51.4437C69.6701 51.8454 70.0969 52.155 70.5823 52.3726C71.0844 52.5902 71.6116 52.699 72.1639 52.699C72.7163 52.699 73.2351 52.5902 73.7205 52.3726C74.2227 52.155 74.6578 51.8454 75.026 51.4437C75.3943 51.0252 75.6788 50.5147 75.8797 49.9122C76.0972 49.2929 76.206 48.5899 76.206 47.8033C76.206 47.0166 76.0972 46.322 75.8797 45.7195C75.6788 45.1002 75.3943 44.5813 75.026 44.1629C74.6578 43.7445 74.2227 43.4264 73.7205 43.2089C73.2351 42.9913 72.7163 42.8825 72.1639 42.8825C71.6116 42.8825 71.0844 42.9913 70.5823 43.2089C70.0969 43.4264 69.6701 43.7445 69.3018 44.1629C68.9336 44.5813 68.6407 45.1002 68.4231 45.7195C68.2223 46.322 68.1219 47.0166 68.1219 47.8033ZM65.8623 47.8033C65.8623 46.8492 65.9962 45.9622 66.264 45.142C66.5318 44.3052 66.9335 43.5854 67.4691 42.9829C68.0047 42.3636 68.6658 41.8782 69.4525 41.5267C70.2391 41.1753 71.143 40.9995 72.1639 40.9995C73.2017 40.9995 74.1055 41.1753 74.8754 41.5267C75.6621 41.8782 76.3232 42.3636 76.8588 42.9829C77.3944 43.5854 77.7961 44.3052 78.0639 45.142C78.3317 45.9622 78.4656 46.8492 78.4656 47.8033C78.4656 48.7573 78.3317 49.6444 78.0639 50.4645C77.7961 51.2847 77.3944 52.0044 76.8588 52.6237C76.3232 53.2262 75.6621 53.7032 74.8754 54.0547C74.1055 54.3895 73.2017 54.5568 72.1639 54.5568C71.143 54.5568 70.2391 54.3895 69.4525 54.0547C68.6658 53.7032 68.0047 53.2262 67.4691 52.6237C66.9335 52.0044 66.5318 51.2847 66.264 50.4645C65.9962 49.6444 65.8623 48.7573 65.8623 47.8033Z" fill="#880000"/>
<path id="Vector_4" d="M56.1131 47.8033C56.1131 48.5899 56.2135 49.2929 56.4143 49.9122C56.6319 50.5147 56.9248 51.0252 57.2931 51.4437C57.6613 51.8454 58.0881 52.155 58.5735 52.3726C59.0756 52.5902 59.6028 52.699 60.1552 52.699C60.7075 52.699 61.2264 52.5902 61.7117 52.3726C62.2139 52.155 62.649 51.8454 63.0173 51.4437C63.3855 51.0252 63.67 50.5147 63.8709 49.9122C64.0885 49.2929 64.1973 48.5899 64.1973 47.8033C64.1973 47.0166 64.0885 46.322 63.8709 45.7195C63.67 45.1002 63.3855 44.5813 63.0173 44.1629C62.649 43.7445 62.2139 43.4264 61.7117 43.2089C61.2264 42.9913 60.7075 42.8825 60.1552 42.8825C59.6028 42.8825 59.0756 42.9913 58.5735 43.2089C58.0881 43.4264 57.6613 43.7445 57.2931 44.1629C56.9248 44.5813 56.6319 45.1002 56.4143 45.7195C56.2135 46.322 56.1131 47.0166 56.1131 47.8033ZM53.8535 47.8033C53.8535 46.8492 53.9874 45.9622 54.2552 45.142C54.523 44.3052 54.9247 43.5854 55.4603 42.9829C55.9959 42.3636 56.657 41.8782 57.4437 41.5267C58.2304 41.1753 59.1342 40.9995 60.1552 40.9995C61.1929 40.9995 62.0967 41.1753 62.8666 41.5267C63.6533 41.8782 64.3144 42.3636 64.85 42.9829C65.3856 43.5854 65.7873 44.3052 66.0551 45.142C66.3229 45.9622 66.4568 46.8492 66.4568 47.8033C66.4568 48.7573 66.3229 49.6444 66.0551 50.4645C65.7873 51.2847 65.3856 52.0044 64.85 52.6237C64.3144 53.2262 63.6533 53.7032 62.8666 54.0547C62.0967 54.3895 61.1929 54.5568 60.1552 54.5568C59.1342 54.5568 58.2304 54.3895 57.4437 54.0547C56.657 53.7032 55.9959 53.2262 55.4603 52.6237C54.9247 52.0044 54.523 51.2847 54.2552 50.4645C53.9874 49.6444 53.8535 48.7573 53.8535 47.8033Z" fill="#880000"/>
<path id="Vector_5" d="M53.745 53.176C53.745 55.3017 53.2597 56.8917 52.2889 57.9462C51.3181 59.0006 49.795 59.5279 47.7196 59.5279C47.117 59.5279 46.4977 59.4609 45.8617 59.327C45.2424 59.1931 44.6734 58.9755 44.1545 58.6742C43.6524 58.373 43.2339 57.9796 42.8992 57.4943C42.5644 57.0089 42.3803 56.4147 42.3469 55.7117H44.4809C44.4976 56.0967 44.6148 56.4231 44.8324 56.6909C45.0667 56.9587 45.3429 57.1762 45.6609 57.3436C45.9956 57.511 46.3555 57.6282 46.7404 57.6951C47.1254 57.7788 47.4936 57.8206 47.8451 57.8206C48.5481 57.8206 49.1423 57.6951 49.6276 57.444C50.113 57.2097 50.5147 56.875 50.8327 56.4398C51.1507 56.0214 51.3767 55.5109 51.5106 54.9083C51.6612 54.3058 51.7366 53.6446 51.7366 52.9249V52.0713H51.6863C51.3181 52.8747 50.7574 53.4689 50.0042 53.8539C49.2678 54.2221 48.4811 54.4062 47.6443 54.4062C46.6735 54.4062 45.8282 54.2305 45.1085 53.879C44.3888 53.5275 43.7863 53.0588 43.3009 52.473C42.8155 51.8705 42.4473 51.1759 42.1962 50.3892C41.9619 49.5858 41.8447 48.7406 41.8447 47.8535C41.8447 47.0836 41.9452 46.2969 42.146 45.4935C42.3469 44.6734 42.6816 43.9369 43.1502 43.2842C43.6189 42.6147 44.2382 42.0707 45.0081 41.6523C45.778 41.2171 46.7237 40.9995 47.8451 40.9995C48.6652 40.9995 49.4184 41.1836 50.1047 41.5518C50.7909 41.9033 51.3265 42.4389 51.7115 43.1586H51.7366V41.3008H53.745V53.176ZM47.7698 52.5483C48.4728 52.5483 49.0669 52.4061 49.5523 52.1215C50.0544 51.8203 50.4561 51.4353 50.7574 50.9667C51.0587 50.4813 51.2763 49.9373 51.4102 49.3348C51.5608 48.7322 51.6361 48.1297 51.6361 47.5271C51.6361 46.958 51.5692 46.3973 51.4353 45.845C51.3014 45.2927 51.0838 44.7989 50.7825 44.3637C50.498 43.9118 50.1214 43.552 49.6527 43.2842C49.1841 43.0164 48.615 42.8825 47.9455 42.8825C47.2593 42.8825 46.6735 43.0164 46.1881 43.2842C45.7027 43.5352 45.301 43.8784 44.983 44.3135C44.6817 44.7487 44.4558 45.2508 44.3051 45.8199C44.1712 46.389 44.1043 46.9831 44.1043 47.6024C44.1043 48.1882 44.1629 48.7741 44.28 49.3599C44.3972 49.9457 44.598 50.4813 44.8826 50.9667C45.1671 51.4353 45.5437 51.8203 46.0124 52.1215C46.481 52.4061 47.0668 52.5483 47.7698 52.5483Z" fill="#880000"/>
<path id="Vector_6" d="M31.0049 41.3008H33.0134V43.3595H33.0636C33.9507 41.7862 35.3566 40.9995 37.2814 40.9995C38.135 40.9995 38.8464 41.1167 39.4154 41.351C39.9845 41.5853 40.4448 41.9117 40.7963 42.3301C41.1478 42.7486 41.3905 43.2507 41.5244 43.8365C41.675 44.4056 41.7503 45.0416 41.7503 45.7446V54.2807H39.6163V45.4935C39.6163 44.6901 39.382 44.0541 38.9133 43.5854C38.4447 43.1168 37.8003 42.8825 36.9802 42.8825C36.3274 42.8825 35.7583 42.9829 35.2729 43.1837C34.8043 43.3846 34.411 43.6691 34.0929 44.0374C33.7749 44.4056 33.5322 44.8408 33.3649 45.3429C33.2142 45.8283 33.1389 46.3639 33.1389 46.9497V54.2807H31.0049V41.3008Z" fill="#880000"/>
<path id="Vector_7" d="M20.553 47.8033C20.553 48.5899 20.6534 49.2929 20.8543 49.9122C21.0719 50.5147 21.3648 51.0252 21.733 51.4437C22.1012 51.8454 22.528 52.155 23.0134 52.3726C23.5155 52.5902 24.0428 52.699 24.5951 52.699C25.1474 52.699 25.6663 52.5902 26.1517 52.3726C26.6538 52.155 27.089 51.8454 27.4572 51.4437C27.8254 51.0252 28.11 50.5147 28.3108 49.9122C28.5284 49.2929 28.6372 48.5899 28.6372 47.8033C28.6372 47.0166 28.5284 46.322 28.3108 45.7195C28.11 45.1002 27.8254 44.5813 27.4572 44.1629C27.089 43.7445 26.6538 43.4264 26.1517 43.2089C25.6663 42.9913 25.1474 42.8825 24.5951 42.8825C24.0428 42.8825 23.5155 42.9913 23.0134 43.2089C22.528 43.4264 22.1012 43.7445 21.733 44.1629C21.3648 44.5813 21.0719 45.1002 20.8543 45.7195C20.6534 46.322 20.553 47.0166 20.553 47.8033ZM18.2935 47.8033C18.2935 46.8492 18.4274 45.9622 18.6952 45.142C18.963 44.3052 19.3647 43.5854 19.9003 42.9829C20.4358 42.3636 21.097 41.8782 21.8836 41.5267C22.6703 41.1753 23.5741 40.9995 24.5951 40.9995C25.6328 40.9995 26.5366 41.1753 27.3066 41.5267C28.0932 41.8782 28.7544 42.3636 29.29 42.9829C29.8256 43.5854 30.2273 44.3052 30.4951 45.142C30.7628 45.9622 30.8967 46.8492 30.8967 47.8033C30.8967 48.7573 30.7628 49.6444 30.4951 50.4645C30.2273 51.2847 29.8256 52.0044 29.29 52.6237C28.7544 53.2262 28.0932 53.7032 27.3066 54.0547C26.5366 54.3895 25.6328 54.5568 24.5951 54.5568C23.5741 54.5568 22.6703 54.3895 21.8836 54.0547C21.097 53.7032 20.4358 53.2262 19.9003 52.6237C19.3647 52.0044 18.963 51.2847 18.6952 50.4645C18.4274 49.6444 18.2935 48.7573 18.2935 47.8033Z" fill="#880000"/>
<path id="Vector_8" d="M0 41.3008H2.00849V43.2089H2.05871C3.02948 41.736 4.42705 40.9995 6.25144 40.9995C7.05483 40.9995 7.78291 41.1669 8.43567 41.5016C9.08843 41.8364 9.54871 42.4055 9.81651 43.2089C10.2517 42.5059 10.8208 41.9619 11.5237 41.577C12.2434 41.192 13.0301 40.9995 13.8837 40.9995C14.5365 40.9995 15.1223 41.0748 15.6411 41.2255C16.1767 41.3594 16.6286 41.577 16.9969 41.8782C17.3818 42.1795 17.6747 42.5728 17.8756 43.0582C18.0932 43.5269 18.202 44.0959 18.202 44.7654V54.2807H16.0679V45.7697C16.0679 45.368 16.0345 44.9914 15.9675 44.6399C15.9006 44.2884 15.775 43.9871 15.5909 43.7361C15.4068 43.4683 15.1474 43.2591 14.8126 43.1084C14.4946 42.9578 14.0762 42.8825 13.5573 42.8825C12.5029 42.8825 11.6744 43.1837 11.0718 43.7863C10.4693 44.3888 10.168 45.1922 10.168 46.1965V54.2807H8.03397V45.7697C8.03397 45.3512 7.99213 44.9663 7.90844 44.6148C7.84149 44.2633 7.71596 43.962 7.53185 43.711C7.34774 43.4432 7.09668 43.2423 6.77866 43.1084C6.47739 42.9578 6.08406 42.8825 5.59867 42.8825C4.97939 42.8825 4.44379 43.008 3.99188 43.2591C3.55671 43.5101 3.19685 43.8114 2.91232 44.1629C2.64452 44.5144 2.44367 44.8826 2.30977 45.2676C2.1926 45.6358 2.13402 45.9454 2.13402 46.1965V54.2807H0V41.3008Z" fill="#880000"/>
</g>
</g>
</svg>
