<svg width="100" height="100" viewBox="0 0 100 100" fill="none" xmlns="http://www.w3.org/2000/svg">
<g id="nextjs">
<g id="nextjs_2" clip-path="url(#clip0_790_6554)">
<path id="Vector" d="M66.4768 40.0084H83.8951V43.2233H76.9854V60.1368H73.5304V43.2233H66.4768V40.0084Z" fill="white"/>
<path id="Vector_2" d="M37.8306 40.0084V43.2233H23.8686V48.3952H35.0968V51.6102H23.8686V56.9219H37.8306V60.1368H20.4138V43.2233H20.4124V40.0084H37.8306Z" fill="white"/>
<path id="Vector_3" d="M46.5279 40.0168H42.0066L58.201 60.1452H62.7355L54.6373 50.0879L62.7226 40.0321L58.201 40.0391L52.3736 47.2766L46.5279 40.0168Z" fill="white"/>
<path id="Vector_4" d="M51.1675 54.3946L48.9033 51.5794L41.9937 60.1606H46.5279L51.1675 54.3946Z" fill="white"/>
<path id="Vector_5" fill-rule="evenodd" clip-rule="evenodd" d="M20.5348 60.1368L4.31855 40H0V60.1284H3.45485V44.3024L16.1946 60.1368H20.5348Z" fill="white"/>
<path id="Vector_6" d="M84.6719 60.0139C84.4188 60.0139 84.2036 59.9262 84.0234 59.7509C83.8432 59.5756 83.7541 59.3634 83.7564 59.112C83.7541 58.8674 83.8432 58.6575 84.0234 58.4822C84.2036 58.3069 84.4188 58.2192 84.6719 58.2192C84.9153 58.2192 85.1282 58.3069 85.3084 58.4822C85.4912 58.6575 85.5823 58.8674 85.5848 59.112C85.5823 59.278 85.5402 59.4303 85.4559 59.5663C85.3693 59.7048 85.2594 59.8132 85.1211 59.8916C84.9853 59.9724 84.8356 60.0139 84.6719 60.0139Z" fill="white"/>
<path id="Vector_7" d="M90.5685 51.5343H92.0994V57.4326C92.0972 57.9747 91.9799 58.4384 91.7507 58.8282C91.519 59.218 91.1982 59.5156 90.7862 59.7255C90.3766 59.9331 89.8967 60.0392 89.3512 60.0392C88.8525 60.0392 88.4055 59.9493 88.0076 59.774C87.6096 59.5986 87.2936 59.3357 87.0619 58.9897C86.8276 58.6436 86.7129 58.2123 86.7129 57.6956H88.2464C88.2487 57.9217 88.3002 58.1177 88.3984 58.2815C88.4967 58.4453 88.6324 58.5698 88.8058 58.6575C88.9812 58.7451 89.1827 58.789 89.4096 58.789C89.6555 58.789 89.8662 58.7382 90.037 58.6344C90.2078 58.5329 90.339 58.3807 90.4304 58.1777C90.5192 57.977 90.5662 57.7279 90.5685 57.4326V51.5343Z" fill="white"/>
<path id="Vector_8" d="M98.3988 53.8411C98.3615 53.4835 98.1975 53.2044 97.912 53.006C97.6239 52.8054 97.2518 52.7062 96.7952 52.7062C96.4747 52.7062 96.1985 52.7546 95.9691 52.8492C95.7397 52.9461 95.5617 53.0752 95.4399 53.239C95.3183 53.4028 95.2574 53.5897 95.2526 53.7996C95.2526 53.9749 95.2947 54.1271 95.3767 54.254C95.4587 54.3832 95.5686 54.4916 95.7115 54.5792C95.8518 54.6692 96.0087 54.743 96.1798 54.803C96.3528 54.863 96.5262 54.9137 96.6993 54.9552L97.4975 55.1513C97.8183 55.2251 98.1298 55.3243 98.427 55.4512C98.7242 55.5757 98.9935 55.7349 99.2298 55.9264C99.4663 56.1178 99.6536 56.3485 99.7917 56.6184C99.9297 56.8883 100 57.2043 100 57.5687C100 58.0601 99.8737 58.4914 99.6183 58.8651C99.3633 59.2365 98.9957 59.5271 98.5135 59.7371C98.0336 59.9447 97.4531 60.0508 96.7696 60.0508C96.1094 60.0508 95.5336 59.9493 95.049 59.7463C94.5622 59.5456 94.1828 59.2503 93.9089 58.8628C93.6351 58.4753 93.4876 58.0024 93.4666 57.4465H94.9836C95.0046 57.7371 95.0983 57.9793 95.2574 58.1754C95.4188 58.3692 95.6295 58.5122 95.8871 58.6091C96.147 58.7036 96.4371 58.7521 96.7579 58.7521C97.0927 58.7521 97.3876 58.7013 97.6427 58.6021C97.8955 58.5029 98.0945 58.3646 98.2374 58.1847C98.3825 58.007 98.4551 57.7971 98.4574 57.5572C98.4551 57.3381 98.3894 57.1558 98.263 57.0128C98.1343 56.8698 97.9564 56.7499 97.7292 56.653C97.5001 56.5561 97.233 56.4684 96.9287 56.3923L95.9597 56.1478C95.2597 55.9702 94.7049 55.7003 94.2998 55.3382C93.8927 54.976 93.6912 54.4962 93.6912 53.8941C93.6912 53.4005 93.827 52.9669 94.1011 52.5955C94.3724 52.2241 94.7447 51.9357 95.2153 51.7304C95.6881 51.5228 96.2219 51.4213 96.8163 51.4213C97.4204 51.4213 97.9493 51.5228 98.4059 51.7304C98.8622 51.9357 99.2206 52.2218 99.4803 52.5862C99.7402 52.9507 99.8759 53.3682 99.8831 53.8411H98.3988Z" fill="white"/>
</g>
</g>
<defs>
<clipPath id="clip0_790_6554">
<rect width="100" height="20.3046" fill="white" transform="translate(0 40)"/>
</clipPath>
</defs>
</svg>
